<?xml version="1.0" encoding="UTF-8" standalone="no"?>
<!-- Created with Inkscape (http://www.inkscape.org/) -->

<svg
   xmlns:dc="http://purl.org/dc/elements/1.1/"
   xmlns:cc="http://creativecommons.org/ns#"
   xmlns:rdf="http://www.w3.org/1999/02/22-rdf-syntax-ns#"
   xmlns:svg="http://www.w3.org/2000/svg"
   xmlns="http://www.w3.org/2000/svg"
   xmlns:sodipodi="http://sodipodi.sourceforge.net/DTD/sodipodi-0.dtd"
   xmlns:inkscape="http://www.inkscape.org/namespaces/inkscape"
   width="50.056259mm"
   height="23.481621mm"
   viewBox="0 0 50.056259 23.481622"
   version="1.1"
   id="svg8"
   inkscape:version="0.92.4 (5da689c313, 2019-01-14)"
   sodipodi:docname="alidata_logo.svg">
  <defs
     id="defs2" />
  <sodipodi:namedview
     id="base"
     pagecolor="#ffffff"
     bordercolor="#666666"
     borderopacity="1.0"
     inkscape:pageopacity="0.0"
     inkscape:pageshadow="2"
     inkscape:zoom="0.9899495"
     inkscape:cx="-635.73716"
     inkscape:cy="241.73649"
     inkscape:document-units="mm"
     inkscape:current-layer="layer1"
     showgrid="false"
     inkscape:window-width="1920"
     inkscape:window-height="1017"
     inkscape:window-x="-8"
     inkscape:window-y="-8"
     inkscape:window-maximized="1"
     fit-margin-top="1"
     fit-margin-left="1"
     fit-margin-right="1"
     fit-margin-bottom="1" />
  <metadata
     id="metadata5">
    <rdf:RDF>
      <cc:Work
         rdf:about="">
        <dc:format>image/svg+xml</dc:format>
        <dc:type
           rdf:resource="http://purl.org/dc/dcmitype/StillImage" />
        <dc:title />
      </cc:Work>
    </rdf:RDF>
  </metadata>
  <g
     inkscape:label="Layer 1"
     inkscape:groupmode="layer"
     id="layer1"
     transform="translate(-37.985744,-83.733563)">
    <g
       id="g4836"
       transform="matrix(1.3641758,0,0,1.3641758,-15.169224,-33.327589)"
       style="fill:#ffffff">
      <g
         transform="matrix(0.34755714,0,0,0.34755714,9.9048061,84.218122)"
         id="g4536"
         style="fill:#ffffff">
        <g
           id="g4534"
           style="fill:#ffffff">
          <path
             id="path4520"
             d="m 85.8,38.2 7.8,-16.8 c 0.1,-0.2 0.2,-0.3 0.4,-0.3 h 0.2 c 0.3,0 0.4,0.1 0.4,0.3 l 7.7,16.8 c 0.1,0.3 0,0.6 -0.4,0.6 h -2.2 c -0.4,0 -0.5,-0.2 -0.7,-0.5 l -1.2,-2.7 h -7.5 l -1.2,2.7 c -0.1,0.3 -0.3,0.5 -0.7,0.5 h -2.2 c -0.4,0.1 -0.6,-0.2 -0.4,-0.6 z M 96.6,32.9 94.1,27.4 H 94 l -2.4,5.5 z"
             class="st0"
             inkscape:connector-curvature="0"
             style="fill:#ffffff" />
          <path
             id="path4522"
             d="m 104.6,21.9 c 0,-0.3 0.2,-0.5 0.5,-0.5 h 2.3 c 0.3,0 0.5,0.2 0.5,0.5 v 14 h 6.4 c 0.3,0 0.5,0.2 0.5,0.5 v 2 c 0,0.3 -0.2,0.5 -0.5,0.5 h -9.1 c -0.3,0 -0.5,-0.2 -0.5,-0.5 V 21.9 Z"
             class="st0"
             inkscape:connector-curvature="0"
             style="fill:#ffffff" />
          <path
             id="path4524"
             d="m 117.3,21.9 c 0,-0.3 0.2,-0.5 0.5,-0.5 h 2.3 c 0.3,0 0.5,0.2 0.5,0.5 v 16.5 c 0,0.3 -0.2,0.5 -0.5,0.5 h -2.3 c -0.3,0 -0.5,-0.2 -0.5,-0.5 z"
             class="st0"
             inkscape:connector-curvature="0"
             style="fill:#ffffff" />
          <path
             id="path4526"
             d="m 125.1,21.9 c 0,-0.3 0.2,-0.5 0.5,-0.5 h 5.9 c 4.8,0 8.8,3.9 8.8,8.7 0,4.8 -3.9,8.8 -8.8,8.8 h -5.9 c -0.3,0 -0.5,-0.2 -0.5,-0.5 z m 6.1,13.9 c 3.2,0 5.6,-2.5 5.6,-5.7 0,-3.3 -2.4,-5.7 -5.6,-5.7 h -2.8 v 11.4 z"
             class="st0"
             inkscape:connector-curvature="0"
             style="fill:#ffffff" />
          <path
             id="path4528"
             d="m 141.3,38.2 7.8,-16.8 c 0.1,-0.2 0.2,-0.3 0.4,-0.3 h 0.3 c 0.3,0 0.4,0.1 0.4,0.3 l 7.7,16.8 c 0.2,0.3 0,0.6 -0.4,0.6 h -2.2 c -0.4,0 -0.5,-0.2 -0.7,-0.5 l -1.2,-2.7 h -7.5 l -1.2,2.7 c -0.1,0.3 -0.3,0.5 -0.7,0.5 h -2.2 c -0.5,0.1 -0.7,-0.2 -0.5,-0.6 z m 10.8,-5.3 -2.5,-5.5 h -0.1 l -2.4,5.5 z"
             class="st0"
             inkscape:connector-curvature="0"
             style="fill:#ffffff" />
          <path
             id="path4530"
             d="m 162.5,24.4 h -3.8 c -0.3,0 -0.5,-0.2 -0.5,-0.5 v -2 c 0,-0.3 0.2,-0.5 0.5,-0.5 h 10.9 c 0.3,0 0.5,0.2 0.5,0.5 v 2 c 0,0.3 -0.2,0.5 -0.5,0.5 h -3.8 v 14 c 0,0.3 -0.2,0.5 -0.5,0.5 H 163 c -0.2,0 -0.5,-0.2 -0.5,-0.5 z"
             class="st0"
             inkscape:connector-curvature="0"
             style="fill:#ffffff" />
          <path
             id="path4532"
             d="m 170.4,38.2 7.8,-16.8 c 0.1,-0.2 0.2,-0.3 0.4,-0.3 h 0.3 c 0.3,0 0.4,0.1 0.4,0.3 l 7.7,16.8 c 0.2,0.3 0,0.6 -0.4,0.6 h -2.2 c -0.4,0 -0.5,-0.2 -0.7,-0.5 l -1.2,-2.7 H 175 l -1.2,2.7 c -0.1,0.3 -0.3,0.5 -0.7,0.5 h -2.2 c -0.5,0.1 -0.7,-0.2 -0.5,-0.6 z m 10.8,-5.3 -2.5,-5.5 h -0.1 l -2.4,5.5 z"
             class="st0"
             inkscape:connector-curvature="0"
             style="fill:#ffffff" />
        </g>
      </g>
    </g>
    <g
       id="g4847"
       transform="matrix(1.6368167,0,0,1.6368167,-6.9941351,-61.95614)"
       style="fill:#ffffff">
      <g
         transform="matrix(0.34755714,0,0,0.34755714,9.9048061,84.218122)"
         id="g4554"
         style="fill:#ffffff">
        <path
           id="path4538"
           d="m 86,52.2 0.1,-0.1 c 0.1,-0.1 0.1,-0.1 0.2,0 0.1,0.1 0.8,0.8 1.8,0.8 0.9,0 1.7,-0.6 1.7,-1.3 0,-0.9 -0.7,-1.3 -1.9,-1.7 -1.2,-0.4 -1.9,-0.8 -1.9,-2 0,-0.7 0.6,-1.8 2.2,-1.8 1,0 1.7,0.5 1.7,0.5 0,0 0.1,0.1 0,0.2 0,0 -0.1,0.1 -0.1,0.1 -0.1,0.1 -0.1,0.1 -0.2,0 0,0 -0.7,-0.5 -1.5,-0.5 -1.2,0 -1.7,0.8 -1.7,1.3 0,0.8 0.6,1.2 1.7,1.5 1.4,0.5 2.2,0.9 2.2,2.1 0,1 -1,1.8 -2.2,1.8 -1.2,0 -2,-0.7 -2.1,-0.8 0,0.1 -0.1,0 0,-0.1 z"
           class="st0"
           inkscape:connector-curvature="0"
           style="fill:#ffffff" />
        <path
           id="path4540"
           d="m 94.9,46.1 c 2,0 3.6,1.6 3.6,3.6 0,2 -1.6,3.6 -3.6,3.6 -2,0 -3.6,-1.6 -3.6,-3.6 0,-2 1.6,-3.6 3.6,-3.6 z m 0,6.7 c 1.7,0 3.2,-1.4 3.2,-3.1 0,-1.7 -1.4,-3.2 -3.2,-3.2 -1.7,0 -3.2,1.4 -3.2,3.2 0.1,1.7 1.5,3.1 3.2,3.1 z"
           class="st0"
           inkscape:connector-curvature="0"
           style="fill:#ffffff" />
        <path
           id="path4542"
           d="m 100.2,46.3 c 0,-0.1 0.1,-0.1 0.1,-0.1 h 4 c 0.1,0 0.1,0.1 0.1,0.1 v 0.2 c 0,0.1 -0.1,0.1 -0.1,0.1 h -3.7 v 3 h 3.2 c 0.1,0 0.1,0.1 0.1,0.1 0,0.1 0,0.3 -0.1,0.3 h -3.2 v 3 c 0,0.1 -0.1,0.1 -0.2,0.1 h -0.2 c -0.1,0 -0.1,-0.1 -0.1,-0.1 v -6.7 z"
           class="st0"
           inkscape:connector-curvature="0"
           style="fill:#ffffff" />
        <path
           id="path4544"
           d="m 107,46.6 h -1.9 c -0.1,0 -0.1,-0.1 -0.1,-0.2 v -0.1 c 0,-0.1 0.1,-0.1 0.1,-0.1 h 4.3 c 0.1,0 0.1,0.1 0.1,0.1 v 0.2 c 0,0.1 0,0.1 -0.1,0.1 h -1.9 V 53 c 0,0.1 -0.1,0.1 -0.2,0.1 h -0.2 C 107,53.1 107,53 107,53 Z"
           class="st0"
           inkscape:connector-curvature="0"
           style="fill:#ffffff" />
        <path
           id="path4546"
           d="m 110,46.3 c 0,-0.1 0,-0.1 0.1,-0.1 h 0.2 c 0.1,0 0.1,0 0.1,0.1 l 1.7,5.9 c 0,0 0,0 0,0 l 1.8,-6 c 0,-0.1 0.1,-0.1 0.2,-0.1 v 0 c 0.1,0 0.1,0 0.1,0.1 l 1.8,6 c 0,0 0,0 0,0 l 1.7,-5.9 c 0,-0.1 0.1,-0.1 0.1,-0.1 h 0.2 c 0.1,0 0.1,0 0.1,0.1 l -2,6.9 c 0,0 0,0.1 -0.1,0.1 h -0.1 c -0.1,0 -0.1,0 -0.1,-0.1 L 114,47.1 v 0 l -1.8,6.1 c 0,0 0,0.1 -0.1,0.1 H 112 c 0,0 -0.1,0 -0.1,-0.1 z"
           class="st0"
           inkscape:connector-curvature="0"
           style="fill:#ffffff" />
        <path
           id="path4548"
           d="m 118.6,53 3.1,-7 c 0,0 0.1,-0.1 0.1,-0.1 v 0 c 0,0 0.1,0 0.1,0.1 l 3,7 c 0,0.1 0,0.1 -0.1,0.1 h -0.3 c -0.1,0 -0.1,0 -0.1,-0.1 l -0.8,-1.8 h -3.8 L 119,53 c 0,0 -0.1,0.1 -0.1,0.1 h -0.3 c 0,0.1 0,0 0,-0.1 z m 4.9,-2.2 -1.7,-4 v 0 l -1.7,4 z"
           class="st0"
           inkscape:connector-curvature="0"
           style="fill:#ffffff" />
        <path
           id="path4550"
           d="m 126.1,46.3 c 0,-0.1 0,-0.1 0.1,-0.1 h 2.5 c 1.2,0 2.2,0.9 2.2,2.1 0,1 -0.7,1.8 -1.6,2.1 l 1.5,2.6 c 0,0.1 0,0.2 -0.1,0.2 h -0.3 c -0.1,0 -0.1,0 -0.1,-0.1 l -1.4,-2.6 c -0.1,0 -0.2,0 -0.4,0 h -1.8 V 53 c 0,0.1 -0.1,0.1 -0.2,0.1 h -0.2 c -0.1,0 -0.1,-0.1 -0.1,-0.1 v -6.7 z m 2.6,3.7 c 1,0 1.8,-0.8 1.8,-1.7 0,-0.9 -0.8,-1.7 -1.8,-1.7 h -2.1 V 50 Z"
           class="st0"
           inkscape:connector-curvature="0"
           style="fill:#ffffff" />
        <path
           id="path4552"
           d="m 132.6,46.3 c 0,-0.1 0.1,-0.1 0.1,-0.1 h 4 c 0.1,0 0.1,0.1 0.1,0.1 v 0.2 c 0,0.1 -0.1,0.1 -0.1,0.1 H 133 v 2.8 h 3.2 c 0.1,0 0.1,0.1 0.1,0.1 v 0.2 c 0,0.1 -0.1,0.1 -0.1,0.1 H 133 v 3 h 3.7 c 0.1,0 0.1,0.1 0.1,0.1 V 53 c 0,0.1 -0.1,0.1 -0.1,0.1 h -4 c -0.1,0 -0.1,-0.1 -0.1,-0.1 z"
           class="st0"
           inkscape:connector-curvature="0"
           style="fill:#ffffff" />
      </g>
    </g>
    <g
       aria-label="Powered by"
       style="font-style:normal;font-variant:normal;font-weight:normal;font-stretch:normal;font-size:5.45069313px;line-height:1.25;font-family:'Brandon Grotesque';-inkscape-font-specification:'Brandon Grotesque';letter-spacing:0px;word-spacing:0px;fill:#ffffff;fill-opacity:1;stroke:none;stroke-width:0.13626732"
       id="text4825">
      <path
         d="m 62.928434,88.445486 c 0,0.05451 0.0436,0.103563 0.103563,0.103563 h 0.207126 c 0.05451,0 0.103564,-0.04906 0.103564,-0.103563 v -1.280913 h 0.899364 c 0.664985,0 1.215505,-0.55052 1.215505,-1.226406 0,-0.659534 -0.55052,-1.204603 -1.220956,-1.204603 h -1.204603 c -0.05996,0 -0.103563,0.04906 -0.103563,0.103563 z m 0.414253,-1.684264 v -1.613405 h 0.86666 c 0.446957,0 0.828505,0.337943 0.828505,0.779449 0,0.46876 -0.381548,0.833956 -0.828505,0.833956 z"
         style="font-style:normal;font-variant:normal;font-weight:normal;font-stretch:normal;font-family:'Brandon Grotesque';-inkscape-font-specification:'Brandon Grotesque';fill:#ffffff;fill-opacity:1;stroke-width:0.13626732"
         id="path840"
         inkscape:connector-curvature="0" />
      <path
         d="m 65.63547,87.45346 c 0,0.62683 0.479661,1.150096 1.084687,1.150096 0.605027,0 1.084688,-0.523266 1.084688,-1.150096 0,-0.615928 -0.479661,-1.139195 -1.084688,-1.139195 -0.605026,0 -1.084687,0.523267 -1.084687,1.139195 z m 0.376097,0 c 0,-0.430605 0.31069,-0.779449 0.70859,-0.779449 0.397901,0 0.708591,0.348844 0.708591,0.779449 0,0.441506 -0.31069,0.795801 -0.708591,0.795801 -0.3979,0 -0.70859,-0.354295 -0.70859,-0.795801 z"
         style="font-style:normal;font-variant:normal;font-weight:normal;font-stretch:normal;font-family:'Brandon Grotesque';-inkscape-font-specification:'Brandon Grotesque';fill:#ffffff;fill-opacity:1;stroke-width:0.13626732"
         id="path842"
         inkscape:connector-curvature="0" />
      <path
         d="m 68.820973,88.549049 c 0.0109,0.03271 0.04361,0.05451 0.09266,0.05451 h 0.02725 c 0.04906,0 0.08176,-0.02725 0.09266,-0.05451 l 0.643181,-1.635208 0.664985,1.635208 c 0.0109,0.02725 0.0436,0.05451 0.09266,0.05451 h 0.02725 c 0.04361,0 0.08176,-0.0218 0.09266,-0.05451 l 0.594125,-2.054911 c 0.0218,-0.07631 0,-0.125366 -0.08176,-0.125366 h -0.168971 c -0.04361,0 -0.08176,0.02725 -0.09266,0.05996 l -0.39245,1.444433 h -0.0055 l -0.610477,-1.504391 c -0.0109,-0.02725 -0.04361,-0.05451 -0.09266,-0.05451 h -0.02725 c -0.04906,0 -0.08176,0.02725 -0.09266,0.05451 l -0.615929,1.498941 h -0.0054 L 68.564791,86.42873 c -0.0109,-0.0327 -0.04906,-0.05996 -0.09811,-0.05996 H 68.29771 c -0.08176,0 -0.103563,0.04906 -0.08176,0.125366 z"
         style="font-style:normal;font-variant:normal;font-weight:normal;font-stretch:normal;font-family:'Brandon Grotesque';-inkscape-font-specification:'Brandon Grotesque';fill:#ffffff;fill-opacity:1;stroke-width:0.13626732"
         id="path844"
         inkscape:connector-curvature="0" />
      <path
         d="m 71.554581,87.458911 c 0,0.626829 0.408802,1.144645 1.068336,1.144645 0.376098,0 0.670435,-0.147168 0.801252,-0.250732 0.08176,-0.05996 0.05996,-0.09266 0.0218,-0.141718 -0.0327,-0.0436 -0.05996,-0.08176 -0.09266,-0.125366 -0.04361,-0.05996 -0.07631,-0.0327 -0.152619,0.0109 -0.125366,0.07631 -0.31069,0.163521 -0.539619,0.163521 -0.386999,0 -0.70859,-0.343394 -0.730393,-0.70859 h 1.5698 c 0.04906,0 0.09266,-0.03816 0.09811,-0.09266 0.0055,-0.03816 0.0109,-0.109014 0.0109,-0.147169 0,-0.572323 -0.414253,-0.997477 -0.986576,-0.997477 -0.659534,0 -1.068336,0.528717 -1.068336,1.144646 z m 0.381549,-0.212577 c 0.03815,-0.337943 0.321591,-0.599577 0.686787,-0.599577 0.332492,0 0.594126,0.283437 0.610478,0.599577 z"
         style="font-style:normal;font-variant:normal;font-weight:normal;font-stretch:normal;font-family:'Brandon Grotesque';-inkscape-font-specification:'Brandon Grotesque';fill:#ffffff;fill-opacity:1;stroke-width:0.13626732"
         id="path846"
         inkscape:connector-curvature="0" />
      <path
         d="m 74.203789,88.445486 c 0,0.05451 0.04906,0.103563 0.103563,0.103563 h 0.168971 c 0.05451,0 0.103564,-0.04906 0.103564,-0.103563 v -1.455335 c 0,0 0.179873,-0.305239 0.594125,-0.305239 0.08176,0 0.163521,0.0218 0.212577,0.04361 0.05451,0.0218 0.103563,0.0218 0.130817,-0.04906 l 0.06541,-0.185324 c 0.05451,-0.152619 -0.218028,-0.179873 -0.381548,-0.179873 -0.452408,0 -0.654083,0.288887 -0.654083,0.288887 l -0.04361,-0.15807 c -0.0109,-0.04906 -0.04906,-0.07631 -0.09266,-0.07631 h -0.103563 c -0.05451,0 -0.103563,0.04906 -0.103563,0.103563 z"
         style="font-style:normal;font-variant:normal;font-weight:normal;font-stretch:normal;font-family:'Brandon Grotesque';-inkscape-font-specification:'Brandon Grotesque';fill:#ffffff;fill-opacity:1;stroke-width:0.13626732"
         id="path848"
         inkscape:connector-curvature="0" />
      <path
         d="m 75.844873,87.458911 c 0,0.626829 0.408802,1.144645 1.068336,1.144645 0.376098,0 0.670435,-0.147168 0.801252,-0.250732 0.08176,-0.05996 0.05996,-0.09266 0.0218,-0.141718 -0.03271,-0.0436 -0.05996,-0.08176 -0.09266,-0.125366 -0.04361,-0.05996 -0.07631,-0.0327 -0.15262,0.0109 -0.125366,0.07631 -0.310689,0.163521 -0.539618,0.163521 -0.386999,0 -0.70859,-0.343394 -0.730393,-0.70859 h 1.569799 c 0.04906,0 0.09266,-0.03816 0.09811,-0.09266 0.0055,-0.03816 0.0109,-0.109014 0.0109,-0.147169 0,-0.572323 -0.414252,-0.997477 -0.986575,-0.997477 -0.659534,0 -1.068336,0.528717 -1.068336,1.144646 z m 0.381549,-0.212577 c 0.03815,-0.337943 0.32159,-0.599577 0.686787,-0.599577 0.332492,0 0.594125,0.283437 0.610478,0.599577 z"
         style="font-style:normal;font-variant:normal;font-weight:normal;font-stretch:normal;font-family:'Brandon Grotesque';-inkscape-font-specification:'Brandon Grotesque';fill:#ffffff;fill-opacity:1;stroke-width:0.13626732"
         id="path850"
         inkscape:connector-curvature="0" />
      <path
         d="m 78.33601,87.45346 c 0,0.62683 0.436055,1.150096 0.992026,1.150096 0.408802,0 0.670435,-0.288886 0.670435,-0.288886 l 0.0327,0.147168 c 0.0109,0.04906 0.04361,0.08721 0.09266,0.08721 h 0.114464 c 0.05451,0 0.103564,-0.04906 0.103564,-0.103563 v -3.608359 c 0,-0.05451 -0.04906,-0.103563 -0.103564,-0.103563 H 80.06933 c -0.05451,0 -0.103563,0.04906 -0.103563,0.103563 v 1.618856 c 0,0 -0.223479,-0.141718 -0.583224,-0.141718 -0.654084,0 -1.046533,0.501464 -1.046533,1.139196 z m 0.381548,0.0055 c 0,-0.436056 0.239831,-0.779449 0.714041,-0.779449 0.299788,0 0.528717,0.130816 0.528717,0.130816 v 1.090139 c 0,0 -0.201676,0.359746 -0.594125,0.359746 -0.397901,0 -0.648633,-0.376098 -0.648633,-0.801252 z"
         style="font-style:normal;font-variant:normal;font-weight:normal;font-stretch:normal;font-family:'Brandon Grotesque';-inkscape-font-specification:'Brandon Grotesque';fill:#ffffff;fill-opacity:1;stroke-width:0.13626732"
         id="path852"
         inkscape:connector-curvature="0" />
      <path
         d="m 82.342695,88.445486 c 0,0.05451 0.04906,0.103563 0.103563,0.103563 h 0.114465 c 0.04906,0 0.08176,-0.03815 0.09266,-0.08721 l 0.0327,-0.147168 c 0,0 0.261634,0.288886 0.670436,0.288886 0.55597,0 0.992026,-0.523266 0.992026,-1.150096 0,-0.637731 -0.39245,-1.139195 -1.046533,-1.139195 -0.359746,0 -0.583224,0.141718 -0.583224,0.141718 v -1.618856 c 0,-0.05451 -0.04906,-0.103563 -0.103564,-0.103563 h -0.168971 c -0.05451,0 -0.103563,0.04906 -0.103563,0.103563 z m 0.381548,-0.545069 v -1.090139 c 0,0 0.228929,-0.130816 0.528718,-0.130816 0.47421,0 0.71404,0.343393 0.71404,0.779449 0,0.425154 -0.250732,0.801252 -0.648632,0.801252 -0.39245,0 -0.594126,-0.359746 -0.594126,-0.359746 z"
         style="font-style:normal;font-variant:normal;font-weight:normal;font-stretch:normal;font-family:'Brandon Grotesque';-inkscape-font-specification:'Brandon Grotesque';fill:#ffffff;fill-opacity:1;stroke-width:0.13626732"
         id="path854"
         inkscape:connector-curvature="0" />
      <path
         d="m 85.669917,88.543599 -0.697688,1.504391 c -0.03816,0.07631 0.0054,0.136267 0.08721,0.136267 h 0.201675 c 0.03816,0 0.07631,-0.0327 0.09266,-0.06541 l 1.673363,-3.624711 c 0.03816,-0.07086 0,-0.125366 -0.08176,-0.125366 h -0.207126 c -0.03816,0 -0.07631,0.02725 -0.09266,0.05996 l -0.763097,1.667912 h -0.0054 L 85.070341,86.42873 c -0.01635,-0.0327 -0.04906,-0.05996 -0.09266,-0.05996 h -0.23983 c -0.08176,0 -0.114465,0.04906 -0.08176,0.119915 z"
         style="font-style:normal;font-variant:normal;font-weight:normal;font-stretch:normal;font-family:'Brandon Grotesque';-inkscape-font-specification:'Brandon Grotesque';fill:#ffffff;fill-opacity:1;stroke-width:0.13626732"
         id="path856"
         inkscape:connector-curvature="0" />
    </g>
    <text
       xml:space="preserve"
       style="font-style:normal;font-weight:normal;font-size:10.58333302px;line-height:1.25;font-family:sans-serif;letter-spacing:0px;word-spacing:0px;fill:#ffffff;fill-opacity:1;stroke:none;stroke-width:0.26458332;"
       x="42.333332"
       y="108.2009"
       id="text4851"><tspan
         sodipodi:role="line"
         id="tspan4849"
         x="42.333332"
         y="117.85639"
         style="stroke-width:0.26458332;fill:#ffffff;" /></text>
  </g>
  <style
     id="style4518"
     type="text/css">
	.st0{fill:#183642;}
	.st1{fill:#DDECF4;}
	.st2{fill:#BFDFEE;}
	.st3{fill:#0091D0;}
	.st4{fill:#589BD4;}
	.st5{fill:#EEF5F8;}
	.st6{fill:#ACD6F2;}
	.st7{fill:#7EBCE7;}
	.st8{fill:#53A1D8;}
	.st9{fill:#54ABDF;}
	.st10{fill:#7FB3E1;}
	.st11{fill:#0087CB;}
	.st12{fill:#007DC5;}
</style>
</svg>
